HIERARCHY
ROOT Hips
{
	OFFSET 0.000000 0.000000 0.000000
	CHANNELS 6 Xposition Yposition Zposition Xrotation Yrotation Zrotation
	JOINT LeftUpLeg_virtual
	{
		OFFSET 0.000000 0.000000 0.000000
		CHANNELS 3 Xrotation Yrotation Zrotation
		JOINT LeftUpLeg
		{
			OFFSET 11.394100 -6.187798 -0.413800
			CHANNELS 3 Xrotation Yrotation Zrotation
			JOINT LeftLeg
			{
				OFFSET 0.430247 -32.302673 3.732800
				CHANNELS 3 Xrotation Yrotation Zrotation
				JOINT LeftFoot
				{
					OFFSET -0.430247 -48.264931 -6.423300
					CHANNELS 3 Xrotation Yrotation Zrotation
					JOINT LeftToeBase
					{
						OFFSET 4.230900 -16.068199 23.438400
						CHANNELS 3 Xrotation Yrotation Zrotation
						JOINT LeftToe_End
						{
							OFFSET 4.510700 0.695400 19.974600
							CHANNELS 3 Xrotation Yrotation Zrotation
							End Site
							{
								OFFSET 0 0 0
							}
						}
					}
				}
			}
		}
	}
	JOINT RightUpLeg_virtual
	{
		OFFSET 0.000000 0.000000 0.000000
		CHANNELS 3 Xrotation Yrotation Zrotation
		JOINT RightUpLeg
		{
			OFFSET -11.333700 -6.187798 -0.413800
			CHANNELS 3 Xrotation Yrotation Zrotation
			JOINT RightLeg
			{
				OFFSET -0.430392 -32.302628 3.733000
				CHANNELS 3 Xrotation Yrotation Zrotation
				JOINT RightFoot
				{
					OFFSET 0.430392 -48.264973 -6.423500
					CHANNELS 3 Xrotation Yrotation Zrotation
					JOINT RightToeBase
					{
						OFFSET -4.230900 -16.068199 23.438400
						CHANNELS 3 Xrotation Yrotation Zrotation
						JOINT RightToe_End
						{
							OFFSET -4.510700 0.695400 19.974600
							CHANNELS 3 Xrotation Yrotation Zrotation
							End Site
							{
								OFFSET 0 0 0
							}
						}
					}
				}
			}
		}
	}
	JOINT Spine_virtual
	{
		OFFSET 0.000000 0.000000 0.000000
		CHANNELS 3 Xrotation Yrotation Zrotation
		JOINT Spine
		{
			OFFSET -0.002400 12.777504 0.315300
			CHANNELS 3 Xrotation Yrotation Zrotation
			JOINT Spine1
			{
				OFFSET -0.002067 5.816869 0.032633
				CHANNELS 3 Xrotation Yrotation Zrotation
				JOINT Spine1_split
				{
					OFFSET -0.002067 5.816869 0.032633
					CHANNELS 3 Xrotation Yrotation Zrotation
					JOINT Spine2
					{
						OFFSET -0.002067 5.816869 0.032633
						CHANNELS 3 Xrotation Yrotation Zrotation
						JOINT Neck_virtual
						{
							OFFSET 0.000000 0.000000 0.000000
							CHANNELS 3 Xrotation Yrotation Zrotation
							JOINT Neck
							{
								OFFSET -0.003700 21.199493 -0.826900
								CHANNELS 3 Xrotation Yrotation Zrotation
								JOINT Head
								{
									OFFSET 0.000000 20.442200 4.834800
									CHANNELS 3 Xrotation Yrotation Zrotation
									JOINT HeadTop_End
									{
										OFFSET 0.000000 34.668396 4.968400
										CHANNELS 3 Xrotation Yrotation Zrotation
										End Site
										{
											OFFSET 0 0 0
										}
									}
								}
							}
						}
						JOINT LeftShoulder_virtual
						{
							OFFSET 0.000000 0.000000 0.000000
							CHANNELS 3 Xrotation Yrotation Zrotation
							JOINT LeftShoulder
							{
								OFFSET 3.288150 8.794197 -1.372250
								CHANNELS 3 Xrotation Yrotation Zrotation
								JOINT LeftShoulder_split
								{
									OFFSET 3.288150 8.794197 -1.372250
									CHANNELS 3 Xrotation Yrotation Zrotation
									JOINT LeftArm
									{
										OFFSET 11.953299 -2.279007 -0.146200
										CHANNELS 3 Xrotation Yrotation Zrotation
										JOINT LeftForeArm
										{
											OFFSET 18.448900 0.000000 0.000000
											CHANNELS 3 Xrotation Yrotation Zrotation
											JOINT LeftHand
											{
												OFFSET 29.527798 0.000000 0.000000
												CHANNELS 3 Xrotation Yrotation Zrotation
												End Site
												{
													OFFSET 0 0 0
												}
											}
										}
									}
								}
							}
						}
						JOINT RightShoulder_virtual
						{
							OFFSET 0.000000 0.000000 0.000000
							CHANNELS 3 Xrotation Yrotation Zrotation
							JOINT RightShoulder
							{
								OFFSET -3.249400 8.794197 -1.372250
								CHANNELS 3 Xrotation Yrotation Zrotation
								JOINT RightShoulder_split
								{
									OFFSET -3.249400 8.794197 -1.372250
									CHANNELS 3 Xrotation Yrotation Zrotation
									JOINT RightArm
									{
										OFFSET -11.953299 -2.279007 -0.146200
										CHANNELS 3 Xrotation Yrotation Zrotation
										JOINT RightForeArm
										{
											OFFSET -18.448900 0.000000 0.000000
											CHANNELS 3 Xrotation Yrotation Zrotation
											JOINT RightHand
											{
												OFFSET -29.527802 0.000000 0.000000
												CHANNELS 3 Xrotation Yrotation Zrotation
												End Site
												{
													OFFSET 0 0 0
												}
											}
										}
									}
								}
							}
						}
					}
				}
			}
		}
	}
}
MOTION
Frames: 4
Frame Time: 0.03333333
-13.533232 89.329666 2.252571 0.000000 0.000000 0.000000 24.347627 -65.461011 18.882922 -71.696919 -20.869950 14.976636 48.208892 -6.776284 6.171774 3.889282 0.358034 -12.436560 -3.110004 3.504512 -0.674007 0.000000 0.000000 0.000000 21.108606 -68.692544 18.202478 -53.953802 1.065511 -20.135241 60.203234 -5.881656 1.646080 13.753898 -1.380583 14.179054 -4.893038 0.523624 7.160121 0.000000 0.000000 0.000000 29.312494 -67.843579 22.825109 8.020243 8.587435 -3.879577 0.016099 11.671900 3.115657 0.317908 0.696379 0.029520 0.000000 0.000000 0.000000 11.426953 12.801062 0.435080 -0.480801 11.009215 -6.371233 -14.625122 11.240342 8.152495 0.000000 0.000000 0.000000 5.279688 14.050082 0.914149 5.569136 4.489354 -7.880747 10.623643 9.860922 -3.005140 -62.098256 -29.956902 -47.698845 5.195342 -76.764605 3.164040 0.000000 0.000000 0.000000 6.375670 13.260004 1.721003 -13.235372 6.349174 -1.526237 -5.418741 -2.218213 -9.416248 -79.086781 38.507063 107.327660 -6.744684 48.507122 6.039800 0.000000 0.000000 0.000000 
-12.977530 91.060493 -3.955338 0.000000 0.000000 0.000000 22.277021 -62.765579 15.338115 -72.888309 -18.863425 13.209629 48.989170 -5.042855 5.167023 5.159988 0.011435 -12.325651 -3.850353 2.809559 0.651973 0.000000 0.000000 0.000000 20.993795 -68.884678 16.981677 -51.532305 -0.945614 -18.328328 56.891610 -4.184801 0.517074 14.219516 1.582279 19.078977 -6.765923 1.316496 4.138357 0.000000 0.000000 0.000000 31.964961 -68.699265 24.454294 6.946139 8.727524 -2.608311 -0.435727 11.779783 3.270208 0.215789 0.032323 0.169642 0.000000 0.000000 0.000000 11.449948 13.077063 0.412227 0.778822 11.266083 -7.249158 -14.054934 12.183122 7.661756 0.000000 0.000000 0.000000 5.408020 14.087185 0.961252 5.377431 4.311232 -7.894538 10.737197 10.103795 -2.298034 -62.130208 -29.830377 -46.921269 4.492276 -75.659515 2.057594 0.000000 0.000000 0.000000 6.412550 13.484560 1.916711 -12.923404 6.575256 -1.618019 -6.046081 -2.168037 -10.252596 -78.122980 37.622792 105.719922 -6.444035 47.382757 5.734749 0.000000 0.000000 0.000000 
-12.191983 93.147911 -11.945168 0.000000 0.000000 0.000000 21.284799 -63.420560 13.143560 -72.599037 -13.550161 11.245346 48.658042 -2.443372 3.541878 7.552221 -0.972130 -11.671647 -4.846573 1.625779 2.990369 0.000000 0.000000 0.000000 23.359479 -70.421388 17.368814 -46.041448 -4.741518 -13.754902 50.566701 -3.954850 -0.436299 11.010687 2.450320 20.565368 -6.040594 1.844884 0.745585 0.000000 0.000000 0.000000 35.507568 -70.676434 26.736453 5.555205 8.998642 -0.689128 -0.697487 12.040076 3.552178 0.421529 -0.217749 0.496945 0.000000 0.000000 0.000000 11.634592 13.520344 0.679406 1.824841 11.268056 -8.521876 -12.443140 12.794804 6.058035 0.000000 0.000000 0.000000 5.679319 14.280978 1.310750 5.190087 3.928927 -8.303452 11.470107 10.042712 -1.751477 -61.971399 -30.497819 -46.811613 5.663072 -76.042354 2.555399 0.000000 0.000000 0.000000 6.573742 13.782741 2.376723 -12.554933 7.062297 -1.359582 -6.746013 -2.027951 -10.410585 -77.034773 38.201989 103.491190 -6.157036 46.685726 5.358854 0.000000 0.000000 0.000000 
-11.506384 94.733559 -21.076984 0.000000 0.000000 0.000000 22.949232 -68.210456 13.925382 -71.019071 -6.932281 9.319696 48.313985 0.442736 1.741199 10.609364 -2.177510 -10.473162 -5.614526 0.321728 5.509692 0.000000 0.000000 0.000000 28.344213 -73.771616 20.361552 -39.843632 -9.037335 -8.217353 45.003177 -5.484389 -0.845459 5.177977 0.660768 18.123021 -3.619452 1.762932 -2.349668 0.000000 0.000000 0.000000 40.874123 -73.490841 30.746933 4.228829 9.303405 1.327875 -0.803847 12.448144 3.924178 0.495730 -0.213166 0.857395 0.000000 0.000000 0.000000 11.783060 14.092754 1.177843 2.626062 10.962208 -9.800002 -10.411127 13.042357 3.741289 0.000000 0.000000 0.000000 5.962791 14.631443 1.858557 5.085434 3.484534 -8.992860 12.696994 9.595071 -1.433109 -61.315954 -31.803700 -47.050253 8.215618 -77.257144 4.297725 0.000000 0.000000 0.000000 6.834736 14.166834 2.975641 -12.177841 7.759150 -0.911779 -7.389513 -1.529894 -10.291181 -75.778326 39.767195 101.223888 -5.922297 46.506929 4.947147 0.000000 0.000000 0.000000 
